<?xml version="1.0" encoding="UTF-8" standalone="no"?>
<!DOCTYPE svg PUBLIC "-//W3C//DTD SVG 1.1//EN" "http://www.w3.org/Graphics/SVG/1.1/DTD/svg11.dtd">
<svg xmlns="http://www.w3.org/2000/svg" version="1.1" viewBox="0.00 0.00 320.00 320.00">
<g stroke-width="2.00" fill="none" stroke-linecap="butt">
<path stroke="#725c19" vector-effect="non-scaling-stroke" d="
  M 145.71 115.93
  C 149.73 113.06 154.04 110.60 158.08 107.84
  Q 158.55 107.52 158.44 106.96
  L 149.39 61.72
  Q 149.24 60.97 148.51 61.19
  L 105.69 73.95
  Q 105.02 74.15 105.28 74.80
  L 122.08 117.47
  Q 122.47 118.45 123.52 118.43
  Q 132.15 118.28 140.59 118.11
  C 142.83 118.06 144.02 117.14 145.71 115.93"
/>
<path stroke="#767a87" vector-effect="non-scaling-stroke" d="
  M 171.22 108.66
  Q 169.91 108.48 169.36 107.45
  Q 169.12 107.02 168.64 107.09
  C 160.43 108.34 152.48 113.58 144.78 118.20
  C 142.70 119.45 140.03 119.87 138.32 120.84
  Q 127.03 127.27 116.78 135.29
  A 0.97 0.96 -55.1 0 1 115.90 135.45
  L 113.51 134.68"
/>
<path stroke="#772211" vector-effect="non-scaling-stroke" d="
  M 113.51 134.68
  Q 112.85 134.39 112.77 134.00
  Q 109.16 114.35 104.90 94.94
  A 0.41 0.40 79.6 0 0 104.44 94.62
  Q 97.56 95.71 91.12 98.30
  C 85.54 100.55 80.99 101.76 75.74 103.25
  C 71.48 104.45 66.58 106.61 61.92 107.76
  Q 60.65 108.08 61.13 109.30
  L 75.49 145.59"
/>
<path stroke="#7d050f" vector-effect="non-scaling-stroke" d="
  M 75.49 145.59
  Q 75.84 146.22 75.84 147.01
  Q 75.84 147.52 75.47 147.86
  C 65.29 157.40 58.84 165.28 50.81 174.47
  C 48.03 177.65 45.67 181.63 42.74 185.18
  A 0.27 0.26 34.6 0 0 42.82 185.58
  L 43.05 185.72
  A 0.87 0.87 0.0 0 0 44.02 185.67
  L 51.76 179.91"
/>
<path stroke="#491c27" vector-effect="non-scaling-stroke" d="
  M 51.76 179.91
  C 58.61 175.59 64.32 171.77 72.60 170.31"
/>
<path stroke="#7d050f" vector-effect="non-scaling-stroke" d="
  M 72.60 170.31
  Q 77.15 168.17 81.71 163.92
  Q 82.06 163.59 82.41 163.50
  Q 83.12 163.32 83.26 163.80"
/>
<path stroke="#767a87" vector-effect="non-scaling-stroke" d="
  M 83.26 163.80
  C 80.38 166.83 76.90 169.63 74.26 172.42
  Q 67.87 179.20 61.48 185.97
  Q 59.16 188.42 57.42 191.27"
/>
<path stroke="#491c27" vector-effect="non-scaling-stroke" d="
  M 57.42 191.27
  Q 56.51 194.25 53.57 196.75"
/>
<path stroke="#5f0510" vector-effect="non-scaling-stroke" d="
  M 53.57 196.75
  Q 42.69 204.78 31.61 213.86
  Q 30.81 214.52 27.99 217.26
  A 0.77 0.76 72.8 0 0 27.76 217.70
  Q 27.74 217.83 27.71 217.97
  A 0.74 0.74 0.0 0 0 28.82 218.73
  L 33.83 215.78
  A 1.08 1.07 -29.5 0 1 35.32 216.19
  Q 35.60 216.68 36.01 217.05"
/>
<path stroke="#767a87" vector-effect="non-scaling-stroke" d="
  M 36.01 217.05
  Q 40.14 217.41 42.37 214.27"
/>
<path stroke="#5f0510" vector-effect="non-scaling-stroke" d="
  M 42.37 214.27
  Q 42.30 213.12 41.17 212.97
  Q 40.74 212.91 40.73 212.47
  Q 40.73 212.28 40.80 212.09
  Q 40.91 211.78 41.34 211.52
  Q 44.39 209.58 47.52 208.61"
/>
<path stroke="#333448" vector-effect="non-scaling-stroke" d="
  M 47.52 208.61
  Q 48.01 221.31 57.08 229.96
  C 60.38 233.11 63.13 234.13 67.74 234.12
  Q 69.95 234.12 72.19 234.26"
/>
<path stroke="#767a87" vector-effect="non-scaling-stroke" d="
  M 72.19 234.26
  Q 83.35 236.34 95.64 232.75"
/>
<path stroke="#6e626f" vector-effect="non-scaling-stroke" d="
  M 95.64 232.75
  L 98.66 232.14"
/>
<path stroke="#5f0510" vector-effect="non-scaling-stroke" d="
  M 98.66 232.14
  Q 94.35 241.89 86.21 246.29"
/>
<path stroke="#6e626f" vector-effect="non-scaling-stroke" d="
  M 86.21 246.29
  C 78.81 250.53 71.37 252.02 63.78 254.96
  A 0.40 0.39 -26.0 0 0 63.58 255.53
  Q 63.87 256.03 64.20 255.95"
/>
<path stroke="#5f0510" vector-effect="non-scaling-stroke" d="
  M 64.20 255.95
  Q 65.08 256.70 67.50 256.78
  Q 89.14 257.54 99.99 256.80
  C 122.32 255.28 141.37 247.66 147.85 224.15
  C 148.30 222.53 149.13 222.07 150.72 222.08"
/>
<path stroke="#6e626f" vector-effect="non-scaling-stroke" d="
  M 150.72 222.08
  L 153.20 221.30"
/>
<path stroke="#767a87" vector-effect="non-scaling-stroke" d="
  M 153.20 221.30
  Q 159.05 219.49 165.01 218.05
  Q 172.04 216.36 184.48 211.15
  Q 195.52 206.53 202.21 202.00
  C 211.74 195.53 222.81 186.37 229.30 177.01"
/>
<path stroke="#491c27" vector-effect="non-scaling-stroke" d="
  M 229.30 177.01
  Q 230.65 175.98 232.45 174.54
  C 235.76 171.88 238.57 167.62 241.36 164.36
  Q 246.74 158.08 254.39 145.35"
/>
<path stroke="#767a87" vector-effect="non-scaling-stroke" d="
  M 254.39 145.35
  Q 261.61 133.60 267.34 121.07
  C 268.58 118.37 269.04 115.33 269.82 112.42
  A 1.62 1.59 -6.8 0 1 270.62 111.42
  L 285.87 103.48"
/>
<path stroke="#333448" vector-effect="non-scaling-stroke" d="
  M 285.87 103.48
  Q 286.41 103.01 287.98 104.23
  Q 288.43 104.58 288.99 104.49
  Q 290.42 104.26 291.22 102.90"
/>
<path stroke="#767a87" vector-effect="non-scaling-stroke" d="
  M 291.22 102.90
  C 293.99 100.05 288.00 97.60 286.53 99.44
  C 285.46 100.77 286.22 102.07 284.31 103.13
  Q 277.45 106.93 270.47 109.97
  A 2.47 2.47 0.0 0 1 268.25 109.85
  Q 265.61 108.31 262.16 107.27
  Q 248.10 103.03 233.06 101.41"
/>
<path stroke="#491c27" vector-effect="non-scaling-stroke" d="
  M 233.06 101.41
  L 230.07 101.16"
/>
<path stroke="#7d050f" vector-effect="non-scaling-stroke" d="
  M 230.07 101.16
  L 227.38 100.78"
/>
<path stroke="#192e69" vector-effect="non-scaling-stroke" d="
  M 227.38 100.78
  C 223.98 99.23 216.54 100.25 212.71 100.42
  A 0.80 0.80 0.0 0 1 211.89 99.77
  L 204.83 64.87
  A 0.47 0.46 80.1 0 0 204.31 64.50
  C 202.60 64.75 201.26 65.00 199.60 65.75
  C 193.21 68.61 186.69 69.10 180.27 71.49
  Q 170.75 75.04 161.17 77.87
  A 0.76 0.75 72.2 0 0 160.67 78.85
  Q 165.67 92.35 171.07 105.50
  Q 171.46 106.45 171.22 108.66"
/>
<path stroke="#932b5b" vector-effect="non-scaling-stroke" d="
  M 227.38 100.78
  Q 224.38 101.96 220.97 101.48
  C 217.86 101.04 215.81 101.28 213.04 101.42
  Q 212.27 101.46 212.38 102.22
  L 213.50 110.21
  A 1.39 1.34 60.9 0 1 213.22 111.27
  C 211.10 113.94 207.10 114.77 204.67 116.50
  C 201.71 118.62 198.33 121.32 194.50 121.41
  Q 188.13 121.57 181.60 121.85"
/>
<path stroke="#8da0d3" vector-effect="non-scaling-stroke" d="
  M 181.60 121.85
  L 178.29 121.77
  Q 177.79 121.76 177.60 121.29
  Q 175.38 115.58 173.18 109.90
  Q 172.90 109.19 172.49 108.91
  Q 171.90 108.52 171.22 108.66"
/>
<path stroke="#bf7778" vector-effect="non-scaling-stroke" d="
  M 187.18 149.27
  C 192.73 161.64 202.42 173.07 215.52 177.52"
/>
<path stroke="#bd8e91" vector-effect="non-scaling-stroke" d="
  M 215.52 177.52
  Q 221.91 178.80 229.30 177.01"
/>
<path stroke="#e2d4d8" vector-effect="non-scaling-stroke" d="
  M 153.20 221.30
  L 150.02 221.14
  Q 149.54 221.11 149.17 220.80
  Q 148.17 219.93 147.55 218.73
  Q 147.31 218.25 146.80 218.06
  C 142.08 216.21 136.28 217.39 131.35 217.87
  Q 129.48 218.05 126.33 219.07
  C 123.72 219.92 120.92 219.68 118.44 220.73
  Q 117.12 221.30 115.72 221.65
  Q 112.07 222.59 111.58 222.75
  C 107.19 224.17 102.64 225.48 98.07 226.16
  C 96.08 226.45 93.61 227.81 93.62 230.07
  Q 93.62 230.46 94.00 230.55
  Q 94.47 230.67 94.93 230.87
  Q 95.45 231.10 95.58 231.64
  Q 95.70 232.14 95.64 232.75"
/>
<path stroke="#a7a6b1" vector-effect="non-scaling-stroke" d="
  M 72.19 234.26
  Q 63.85 229.62 58.50 221.29
  C 55.31 216.33 54.09 209.24 52.63 205.49"
/>
<path stroke="#d3777a" vector-effect="non-scaling-stroke" d="
  M 52.63 205.49
  Q 59.95 200.94 69.35 199.58"
/>
<path stroke="#e2d4d8" vector-effect="non-scaling-stroke" d="
  M 69.35 199.58
  Q 71.95 199.12 72.16 201.68
  Q 72.20 202.15 72.63 202.35
  C 76.10 203.92 78.65 201.02 82.01 200.32
  Q 82.89 200.14 83.86 199.55
  C 85.30 198.67 86.90 198.57 88.24 197.69
  Q 92.52 194.89 94.01 194.42
  Q 95.52 193.94 96.29 193.25
  Q 96.66 192.92 97.14 192.80
  Q 97.98 192.58 98.53 191.97
  Q 98.85 191.62 99.28 191.41
  Q 102.98 189.60 105.33 186.23
  A 2.01 1.97 -86.6 0 1 105.98 185.64
  Q 106.64 185.29 106.81 184.68
  C 107.38 182.67 108.11 181.09 108.01 178.84"
/>
<path stroke="#d3777a" vector-effect="non-scaling-stroke" d="
  M 108.01 178.84
  L 109.57 176.46
  A 1.39 1.39 0.0 0 0 108.16 174.33
  L 106.94 174.55"
/>
<path stroke="#bd8e91" vector-effect="non-scaling-stroke" d="
  M 106.94 174.55
  Q 91.37 177.02 77.01 183.61
  C 75.37 184.36 71.57 186.93 69.84 185.39
  Q 69.46 185.06 69.03 185.32
  Q 65.42 187.49 61.65 189.38
  Q 59.97 190.23 59.61 192.32
  Q 59.52 192.85 59.07 193.12
  L 57.76 193.92
  Q 57.05 194.35 57.43 193.61
  Q 57.93 192.62 57.42 191.27"
/>
<path stroke="#f17778" vector-effect="non-scaling-stroke" d="
  M 83.26 163.80
  L 95.77 152.27"
/>
<path stroke="#c41919" vector-effect="non-scaling-stroke" d="
  M 230.07 101.16
  Q 228.42 102.93 226.07 103.94
  C 223.61 105.00 222.35 109.56 221.82 111.93
  Q 221.42 113.70 221.92 115.56
  Q 222.39 117.32 223.04 119.08"
/>
<path stroke="#c50200" vector-effect="non-scaling-stroke" d="
  M 223.49 122.19
  Q 222.60 121.83 222.60 121.01
  Q 222.60 119.82 221.72 119.11
  Q 221.40 118.85 221.38 118.43
  Q 221.33 117.02 220.77 115.70
  Q 220.56 115.20 220.04 115.33
  L 201.23 119.94
  A 0.84 0.84 0.0 0 0 200.68 121.13
  C 202.57 124.99 201.85 128.84 202.82 132.34
  Q 203.67 135.42 204.91 138.78
  A 2.13 2.12 -18.8 0 1 203.55 141.54
  Q 201.78 142.10 199.40 143.42
  C 196.37 145.12 191.59 146.85 189.25 149.26
  Q 188.97 149.55 188.62 149.34
  Q 187.95 148.93 187.18 149.27"
/>
<path stroke="#f17778" vector-effect="non-scaling-stroke" d="
  M 187.18 149.27
  Q 181.08 136.12 181.60 121.85"
/>
<path stroke="#a70202" vector-effect="non-scaling-stroke" d="
  M 226.62 131.22
  Q 216.99 134.42 207.34 140.06
  A 1.80 1.80 0.0 0 0 206.76 142.62
  C 209.33 146.42 212.94 152.86 216.76 155.66
  Q 217.39 156.13 218.09 155.78
  Q 224.03 152.83 228.23 148.73
  Q 229.56 147.43 230.73 146.91
  C 232.90 145.94 235.39 146.50 236.30 143.88"
/>
<path stroke="#921919" vector-effect="non-scaling-stroke" d="
  M 248.30 147.87
  L 244.25 147.99
  Q 244.07 147.99 244.06 148.17
  L 244.06 148.17
  Q 244.06 148.26 244.25 148.30
  L 245.72 148.65
  A 1.00 1.00 0.0 0 1 246.28 150.24
  Q 239.46 159.09 232.32 167.56
  Q 228.41 172.20 225.41 174.94
  Q 225.04 175.27 224.87 175.73
  C 224.29 177.23 223.29 177.78 221.60 177.68
  Q 218.62 177.49 215.52 177.52"
/>
<path stroke="#c41919" vector-effect="non-scaling-stroke" d="
  M 72.60 170.31
  C 71.30 168.23 69.87 168.20 67.60 167.92
  Q 67.17 167.87 67.03 167.45
  Q 66.67 166.36 65.48 166.90
  C 61.90 168.50 57.68 172.67 55.47 174.54
  Q 52.94 176.69 50.69 179.17
  A 0.38 0.38 0.0 0 0 50.84 179.79
  Q 51.29 179.96 51.76 179.91"
/>
<path stroke="#eb957b" vector-effect="non-scaling-stroke" d="
  M 113.51 134.68
  Q 113.40 134.82 113.28 134.93
  Q 113.08 135.14 113.14 135.42
  L 114.18 140.05
  A 0.66 0.64 -23.0 0 1 113.89 140.74
  L 95.77 152.27"
/>
<path stroke="#f12003" vector-effect="non-scaling-stroke" d="
  M 95.77 152.27
  C 93.61 152.86 92.01 153.73 89.68 153.45
  C 87.40 153.17 85.54 153.17 83.19 152.49
  Q 78.28 151.07 73.23 152.47
  Q 72.68 152.62 73.03 152.18
  Q 73.36 151.77 73.87 151.59
  Q 74.31 151.43 74.53 151.02
  C 75.33 149.53 76.90 147.22 75.49 145.59"
/>
<path stroke="#cb5f62" vector-effect="non-scaling-stroke" d="
  M 150.72 222.08
  C 147.69 222.38 145.74 220.41 142.67 220.96
  Q 132.50 222.76 122.40 224.93
  C 116.19 226.26 109.53 228.40 103.04 230.08
  Q 101.03 230.60 98.66 232.14"
/>
<path stroke="#cb5f62" vector-effect="non-scaling-stroke" d="
  M 108.01 178.84
  Q 102.22 183.27 96.05 186.81
  Q 95.92 186.89 95.05 187.58
  Q 94.50 188.02 93.78 188.09
  Q 93.29 188.13 92.88 188.40
  Q 90.30 190.07 87.67 191.64
  C 86.84 192.15 85.76 192.15 84.97 193.01
  A 2.38 2.36 -80.3 0 1 84.17 193.58
  C 80.96 194.99 78.00 196.93 74.79 197.95
  Q 72.07 198.81 69.35 199.58"
/>
<path stroke="#8f313b" vector-effect="non-scaling-stroke" d="
  M 52.63 205.49
  Q 48.60 206.91 47.52 208.61"
/>
<path stroke="#d3777a" vector-effect="non-scaling-stroke" d="
  M 42.37 214.27
  Q 38.58 211.36 36.01 217.05"
/>
<path stroke="#a6191a" vector-effect="non-scaling-stroke" d="
  M 53.57 196.75
  Q 56.62 195.99 61.39 192.91
  Q 65.17 190.46 77.46 184.94
  Q 78.53 184.46 83.48 182.83
  Q 86.55 181.82 89.30 180.03
  Q 89.48 179.91 89.70 179.90
  Q 89.91 179.89 90.13 179.88
  Q 90.62 179.87 91.02 179.59
  C 92.28 178.72 93.69 178.74 94.95 178.18
  C 97.49 177.04 100.23 176.78 102.77 175.80
  Q 104.79 175.01 106.94 174.55"
/>
<path stroke="#a7a6b1" vector-effect="non-scaling-stroke" d="
  M 291.22 102.90
  Q 286.61 99.92 285.87 103.48"
/>
<path stroke="#bd8e91" vector-effect="non-scaling-stroke" d="
  M 254.39 145.35
  L 248.30 147.87"
/>
<path stroke="#bf7778" vector-effect="non-scaling-stroke" d="
  M 248.30 147.87
  C 243.32 148.32 240.20 146.86 236.30 143.88"
/>
<path stroke="#d3777a" vector-effect="non-scaling-stroke" d="
  M 236.30 143.88
  Q 230.49 139.06 226.62 131.22"
/>
<path stroke="#bf7778" vector-effect="non-scaling-stroke" d="
  M 226.62 131.22
  L 223.49 122.19"
/>
<path stroke="#f17778" vector-effect="non-scaling-stroke" d="
  M 223.49 122.19
  L 223.04 119.08"
/>
<path stroke="#bd8e91" vector-effect="non-scaling-stroke" d="
  M 223.04 119.08
  C 222.74 111.27 224.47 103.43 233.06 101.41"
/>
<path stroke="#cb5f62" vector-effect="non-scaling-stroke" d="
  M 64.20 255.95
  Q 67.40 256.10 72.38 254.76
  Q 73.60 254.43 78.49 253.85
  Q 80.15 253.66 84.73 250.08
  Q 87.21 248.15 86.21 246.29"
/>
<path stroke="#eed382" vector-effect="non-scaling-stroke" d="
  M 136.89 70.84
  L 119.77 76.11
  A 1.43 1.42 -14.1 0 0 118.79 77.74
  L 122.32 95.96
  Q 122.60 97.41 124.02 96.97
  L 134.83 93.58"
/>
<path stroke="#e8c012" vector-effect="non-scaling-stroke" d="
  M 134.83 93.58
  Q 135.61 98.25 138.14 101.89"
/>
<path stroke="#eed382" vector-effect="non-scaling-stroke" d="
  M 138.14 101.89
  Q 134.57 103.55 131.02 102.19
  Q 130.45 101.97 130.28 101.39
  L 129.64 99.20
  A 0.97 0.96 73.0 0 0 128.43 98.55
  L 124.41 99.82
  Q 123.58 100.08 123.88 100.90
  L 126.15 107.14
  A 2.22 2.21 79.5 0 0 128.27 108.60
  L 138.58 108.35"
/>
<path stroke="#e8c012" vector-effect="non-scaling-stroke" d="
  M 138.58 108.35
  Q 139.99 109.69 140.68 112.70
  A 0.93 0.93 0.0 0 0 142.06 113.29
  L 153.09 106.76
  A 2.19 2.18 -21.3 0 0 154.12 104.43
  L 146.56 67.83
  A 1.94 1.94 0.0 0 0 144.08 66.38
  C 142.65 66.82 141.39 67.02 140.20 68.10
  Q 138.66 69.49 136.89 70.84"
/>
<path stroke="#f4e380" vector-effect="non-scaling-stroke" d="
  M 138.58 108.35
  L 148.68 102.35
  Q 149.51 101.85 149.32 100.91
  L 146.23 85.19
  A 0.99 0.99 0.0 0 0 144.98 84.43
  L 128.06 89.52
  Q 127.09 89.81 126.90 88.81
  L 125.61 81.97
  A 1.31 1.30 77.6 0 1 126.57 80.46
  L 136.38 77.96
  A 1.07 1.07 0.0 0 1 137.65 78.65
  L 138.85 82.08
  A 1.23 1.23 0.0 0 0 140.24 82.88
  L 144.23 82.11
  Q 145.09 81.95 144.79 81.13
  L 141.08 70.65
  A 0.58 0.58 0.0 0 0 140.44 70.28
  L 136.89 70.84"
/>
<path stroke="#f4e380" vector-effect="non-scaling-stroke" d="
  M 138.14 101.89
  Q 140.40 101.07 142.20 99.29
  Q 142.63 98.87 142.57 98.26
  L 142.03 93.23
  A 1.33 1.33 0.0 0 0 140.36 92.09
  L 134.83 93.58"
/>
<path stroke="#97aada" vector-effect="non-scaling-stroke" d="
  M 185.30 79.90
  L 172.21 84.05
  Q 171.33 84.33 171.70 85.17
  L 173.24 88.72
  Q 173.55 89.45 174.32 89.23
  L 186.97 85.63"
/>
<path stroke="#3077c9" vector-effect="non-scaling-stroke" d="
  M 186.97 85.63
  Q 187.24 88.55 188.71 91.15"
/>
<path stroke="#97aada" vector-effect="non-scaling-stroke" d="
  M 188.71 91.15
  L 182.82 92.67
  A 0.89 0.89 0.0 0 0 182.21 93.85
  L 183.62 97.51
  Q 183.98 98.45 184.95 98.19
  L 189.83 96.85"
/>
<path stroke="#3077c9" vector-effect="non-scaling-stroke" d="
  M 189.83 96.85
  L 192.91 105.34"
/>
<path stroke="#97aada" vector-effect="non-scaling-stroke" d="
  M 192.91 105.34
  Q 189.66 106.15 186.38 105.66
  Q 185.80 105.57 185.61 105.02
  L 184.65 102.26
  Q 184.35 101.40 183.48 101.68
  L 179.71 102.89
  Q 178.76 103.19 179.12 104.12
  L 181.77 110.98
  A 0.94 0.93 -10.5 0 0 182.64 111.57
  L 194.22 111.47"
/>
<path stroke="#3077c9" vector-effect="non-scaling-stroke" d="
  M 194.22 111.47
  L 195.60 115.76
  Q 196.21 117.65 197.88 116.57
  L 207.96 110.08
  A 2.81 2.80 67.2 0 0 209.17 107.11
  Q 206.92 97.10 205.26 87.45
  C 204.78 84.61 203.69 81.21 203.40 78.75
  Q 202.96 74.91 201.49 70.81
  Q 201.07 69.64 199.87 70.00
  L 184.77 74.63
  Q 184.26 74.79 184.04 75.28
  Q 183.26 77.03 185.30 79.90"
/>
<path stroke="#98ccee" vector-effect="non-scaling-stroke" d="
  M 194.22 111.47
  L 204.48 105.14
  Q 204.86 104.91 204.77 104.47
  L 198.96 76.28
  A 0.40 0.39 -13.4 0 0 198.46 75.98
  L 185.30 79.90"
/>
<path stroke="#98ccee" vector-effect="non-scaling-stroke" d="
  M 192.91 105.34
  L 197.64 102.48
  Q 198.09 102.21 198.08 101.69
  Q 198.06 98.54 196.99 95.58
  A 0.69 0.69 0.0 0 0 196.16 95.14
  L 189.83 96.85"
/>
<path stroke="#98ccee" vector-effect="non-scaling-stroke" d="
  M 188.71 91.15
  L 194.59 89.39
  A 1.37 1.37 0.0 0 0 195.53 87.75
  L 194.71 84.48
  Q 194.40 83.23 193.17 83.63
  L 186.97 85.63"
/>
<path stroke="#f29a7a" vector-effect="non-scaling-stroke" d="
  M 80.61 117.72
  L 99.96 112.05
  Q 100.40 111.92 100.30 111.47
  L 99.20 106.47
  Q 99.10 106.03 98.68 106.16
  L 72.42 114.02
  A 0.85 0.84 71.0 0 0 71.88 115.14
  L 77.91 130.32
  A 0.59 0.59 0.0 0 0 78.63 130.67
  L 95.99 125.32
  Q 97.27 124.92 97.52 126.24
  L 98.45 131.29
  Q 98.69 132.62 97.49 133.23
  Q 95.69 134.16 93.92 135.01
  C 91.73 136.06 89.79 135.61 87.50 135.88
  Q 86.40 136.01 85.99 134.99
  L 84.82 132.10
  Q 84.56 131.47 83.92 131.70
  L 79.87 133.13
  Q 79.04 133.42 79.36 134.23
  L 82.16 141.25
  Q 82.38 141.80 82.98 141.81
  Q 87.90 141.88 92.83 141.56
  C 97.08 141.28 100.61 137.71 104.05 135.85
  Q 105.21 135.22 104.96 133.92
  L 101.95 118.65
  A 0.89 0.89 0.0 0 0 100.91 117.95
  Q 95.14 119.12 89.53 121.16
  C 87.20 122.01 84.76 122.59 82.41 123.43
  Q 81.30 123.82 80.92 122.70
  L 79.79 119.30
  Q 79.38 118.08 80.61 117.72"
/>
<path stroke="#f17778" vector-effect="non-scaling-stroke" d="
  M 184.20 150.63
  C 186.03 138.43 177.99 127.76 166.41 124.37
  C 160.18 122.54 152.62 124.65 146.46 126.51
  C 142.06 127.84 136.80 128.70 133.47 129.94
  Q 119.77 135.03 118.84 149.77
  Q 118.72 151.69 118.56 153.67
  Q 118.52 154.17 118.16 154.52
  Q 112.99 159.50 111.43 166.08
  C 107.60 182.33 123.70 198.53 140.23 193.99
  C 156.61 189.49 177.23 189.59 176.70 165.38
  Q 176.69 164.87 177.00 164.47
  C 180.64 159.80 183.28 156.74 184.20 150.63"
/>
<path stroke="#fb8180" vector-effect="non-scaling-stroke" d="
  M 137.30 152.48
  L 137.10 151.64
  A 3.11 3.10 75.5 0 1 139.29 147.92
  Q 149.49 145.10 159.03 142.77
  C 162.28 141.98 165.11 142.16 165.93 145.83
  C 166.10 146.60 165.83 147.60 165.89 148.48
  A 1.15 1.14 16.6 0 0 166.36 149.34
  Q 169.70 151.81 172.01 155.26
  A 0.41 0.41 0.0 0 0 172.68 155.28
  C 179.10 146.82 173.96 134.52 163.56 133.03
  Q 160.03 132.53 153.07 134.27
  Q 145.78 136.10 138.46 137.80
  C 122.10 141.59 125.58 164.20 141.17 165.07
  C 144.88 165.28 149.27 163.65 153.43 162.90
  A 4.16 4.16 0.0 0 1 158.21 165.98
  L 158.40 166.73
  A 3.09 3.08 -14.7 0 1 156.22 170.46
  Q 145.82 173.32 136.86 175.50
  Q 133.84 176.23 132.60 176.00
  C 129.22 175.36 129.86 172.90 129.46 170.21
  Q 129.38 169.70 129.02 169.32
  L 123.17 163.21
  A 0.47 0.47 0.0 0 0 122.43 163.30
  Q 116.98 172.42 122.75 179.87
  C 126.03 184.11 131.23 186.50 136.49 185.43
  Q 141.27 184.45 155.64 180.67
  C 160.98 179.26 164.73 177.65 166.72 172.73
  C 170.56 163.20 163.14 152.92 152.95 153.25
  C 149.79 153.35 145.81 154.77 142.13 155.53
  Q 138.24 156.34 137.30 152.48"
/>
<path stroke="#9f8e99" vector-effect="non-scaling-stroke" d="
  M 51.42 221.85
  A 1.45 1.45 0.0 0 0 52.10 222.81
  L 56.11 225.17
  A 1.45 1.45 0.0 0 0 58.13 223.26
  L 54.68 216.56
  A 1.45 1.45 0.0 0 0 52.56 216.03
  L 51.29 216.91
  A 1.45 1.45 0.0 0 0 50.70 218.40
  L 51.42 221.85"
/>
</g>
<path fill="#02071d" d="
  M 0.00 0.00
  L 320.00 0.00
  L 320.00 320.00
  L 0.00 320.00
  L 0.00 0.00
  Z
  M 145.71 115.93
  C 149.73 113.06 154.04 110.60 158.08 107.84
  Q 158.55 107.52 158.44 106.96
  L 149.39 61.72
  Q 149.24 60.97 148.51 61.19
  L 105.69 73.95
  Q 105.02 74.15 105.28 74.80
  L 122.08 117.47
  Q 122.47 118.45 123.52 118.43
  Q 132.15 118.28 140.59 118.11
  C 142.83 118.06 144.02 117.14 145.71 115.93
  Z
  M 171.22 108.66
  Q 169.91 108.48 169.36 107.45
  Q 169.12 107.02 168.64 107.09
  C 160.43 108.34 152.48 113.58 144.78 118.20
  C 142.70 119.45 140.03 119.87 138.32 120.84
  Q 127.03 127.27 116.78 135.29
  A 0.97 0.96 -55.1 0 1 115.90 135.45
  L 113.51 134.68
  Q 112.85 134.39 112.77 134.00
  Q 109.16 114.35 104.90 94.94
  A 0.41 0.40 79.6 0 0 104.44 94.62
  Q 97.56 95.71 91.12 98.30
  C 85.54 100.55 80.99 101.76 75.74 103.25
  C 71.48 104.45 66.58 106.61 61.92 107.76
  Q 60.65 108.08 61.13 109.30
  L 75.49 145.59
  Q 75.84 146.22 75.84 147.01
  Q 75.84 147.52 75.47 147.86
  C 65.29 157.40 58.84 165.28 50.81 174.47
  C 48.03 177.65 45.67 181.63 42.74 185.18
  A 0.27 0.26 34.6 0 0 42.82 185.58
  L 43.05 185.72
  A 0.87 0.87 0.0 0 0 44.02 185.67
  L 51.76 179.91
  C 58.61 175.59 64.32 171.77 72.60 170.31
  Q 77.15 168.17 81.71 163.92
  Q 82.06 163.59 82.41 163.50
  Q 83.12 163.32 83.26 163.80
  C 80.38 166.83 76.90 169.63 74.26 172.42
  Q 67.87 179.20 61.48 185.97
  Q 59.16 188.42 57.42 191.27
  Q 56.51 194.25 53.57 196.75
  Q 42.69 204.78 31.61 213.86
  Q 30.81 214.52 27.99 217.26
  A 0.77 0.76 72.8 0 0 27.76 217.70
  Q 27.74 217.83 27.71 217.97
  A 0.74 0.74 0.0 0 0 28.82 218.73
  L 33.83 215.78
  A 1.08 1.07 -29.5 0 1 35.32 216.19
  Q 35.60 216.68 36.01 217.05
  Q 40.14 217.41 42.37 214.27
  Q 42.30 213.12 41.17 212.97
  Q 40.74 212.91 40.73 212.47
  Q 40.73 212.28 40.80 212.09
  Q 40.91 211.78 41.34 211.52
  Q 44.39 209.58 47.52 208.61
  Q 48.01 221.31 57.08 229.96
  C 60.38 233.11 63.13 234.13 67.74 234.12
  Q 69.95 234.12 72.19 234.26
  Q 83.35 236.34 95.64 232.75
  L 98.66 232.14
  Q 94.35 241.89 86.21 246.29
  C 78.81 250.53 71.37 252.02 63.78 254.96
  A 0.40 0.39 -26.0 0 0 63.58 255.53
  Q 63.87 256.03 64.20 255.95
  Q 65.08 256.70 67.50 256.78
  Q 89.14 257.54 99.99 256.80
  C 122.32 255.28 141.37 247.66 147.85 224.15
  C 148.30 222.53 149.13 222.07 150.72 222.08
  L 153.20 221.30
  Q 159.05 219.49 165.01 218.05
  Q 172.04 216.36 184.48 211.15
  Q 195.52 206.53 202.21 202.00
  C 211.74 195.53 222.81 186.37 229.30 177.01
  Q 230.65 175.98 232.45 174.54
  C 235.76 171.88 238.57 167.62 241.36 164.36
  Q 246.74 158.08 254.39 145.35
  Q 261.61 133.60 267.34 121.07
  C 268.58 118.37 269.04 115.33 269.82 112.42
  A 1.62 1.59 -6.8 0 1 270.62 111.42
  L 285.87 103.48
  Q 286.41 103.01 287.98 104.23
  Q 288.43 104.58 288.99 104.49
  Q 290.42 104.26 291.22 102.90
  C 293.99 100.05 288.00 97.60 286.53 99.44
  C 285.46 100.77 286.22 102.07 284.31 103.13
  Q 277.45 106.93 270.47 109.97
  A 2.47 2.47 0.0 0 1 268.25 109.85
  Q 265.61 108.31 262.16 107.27
  Q 248.10 103.03 233.06 101.41
  L 230.07 101.16
  L 227.38 100.78
  C 223.98 99.23 216.54 100.25 212.71 100.42
  A 0.80 0.80 0.0 0 1 211.89 99.77
  L 204.83 64.87
  A 0.47 0.46 80.1 0 0 204.31 64.50
  C 202.60 64.75 201.26 65.00 199.60 65.75
  C 193.21 68.61 186.69 69.10 180.27 71.49
  Q 170.75 75.04 161.17 77.87
  A 0.76 0.75 72.2 0 0 160.67 78.85
  Q 165.67 92.35 171.07 105.50
  Q 171.46 106.45 171.22 108.66
  Z"
/>
<path fill="#e2b014" d="
  M 145.71 115.93
  C 144.02 117.14 142.83 118.06 140.59 118.11
  Q 132.15 118.28 123.52 118.43
  Q 122.47 118.45 122.08 117.47
  L 105.28 74.80
  Q 105.02 74.15 105.69 73.95
  L 148.51 61.19
  Q 149.24 60.97 149.39 61.72
  L 158.44 106.96
  Q 158.55 107.52 158.08 107.84
  C 154.04 110.60 149.73 113.06 145.71 115.93
  Z
  M 136.89 70.84
  L 119.77 76.11
  A 1.43 1.42 -14.1 0 0 118.79 77.74
  L 122.32 95.96
  Q 122.60 97.41 124.02 96.97
  L 134.83 93.58
  Q 135.61 98.25 138.14 101.89
  Q 134.57 103.55 131.02 102.19
  Q 130.45 101.97 130.28 101.39
  L 129.64 99.20
  A 0.97 0.96 73.0 0 0 128.43 98.55
  L 124.41 99.82
  Q 123.58 100.08 123.88 100.90
  L 126.15 107.14
  A 2.22 2.21 79.5 0 0 128.27 108.60
  L 138.58 108.35
  Q 139.99 109.69 140.68 112.70
  A 0.93 0.93 0.0 0 0 142.06 113.29
  L 153.09 106.76
  A 2.19 2.18 -21.3 0 0 154.12 104.43
  L 146.56 67.83
  A 1.94 1.94 0.0 0 0 144.08 66.38
  C 142.65 66.82 141.39 67.02 140.20 68.10
  Q 138.66 69.49 136.89 70.84
  Z"
/>
<path fill="#2f54b5" d="
  M 227.38 100.78
  Q 224.38 101.96 220.97 101.48
  C 217.86 101.04 215.81 101.28 213.04 101.42
  Q 212.27 101.46 212.38 102.22
  L 213.50 110.21
  A 1.39 1.34 60.9 0 1 213.22 111.27
  C 211.10 113.94 207.10 114.77 204.67 116.50
  C 201.71 118.62 198.33 121.32 194.50 121.41
  Q 188.13 121.57 181.60 121.85
  L 178.29 121.77
  Q 177.79 121.76 177.60 121.29
  Q 175.38 115.58 173.18 109.90
  Q 172.90 109.19 172.49 108.91
  Q 171.90 108.52 171.22 108.66
  Q 171.46 106.45 171.07 105.50
  Q 165.67 92.35 160.67 78.85
  A 0.76 0.75 72.2 0 1 161.17 77.87
  Q 170.75 75.04 180.27 71.49
  C 186.69 69.10 193.21 68.61 199.60 65.75
  C 201.26 65.00 202.60 64.75 204.31 64.50
  A 0.47 0.46 80.1 0 1 204.83 64.87
  L 211.89 99.77
  A 0.80 0.80 0.0 0 0 212.71 100.42
  C 216.54 100.25 223.98 99.23 227.38 100.78
  Z
  M 185.30 79.90
  L 172.21 84.05
  Q 171.33 84.33 171.70 85.17
  L 173.24 88.72
  Q 173.55 89.45 174.32 89.23
  L 186.97 85.63
  Q 187.24 88.55 188.71 91.15
  L 182.82 92.67
  A 0.89 0.89 0.0 0 0 182.21 93.85
  L 183.62 97.51
  Q 183.98 98.45 184.95 98.19
  L 189.83 96.85
  L 192.91 105.34
  Q 189.66 106.15 186.38 105.66
  Q 185.80 105.57 185.61 105.02
  L 184.65 102.26
  Q 184.35 101.40 183.48 101.68
  L 179.71 102.89
  Q 178.76 103.19 179.12 104.12
  L 181.77 110.98
  A 0.94 0.93 -10.5 0 0 182.64 111.57
  L 194.22 111.47
  L 195.60 115.76
  Q 196.21 117.65 197.88 116.57
  L 207.96 110.08
  A 2.81 2.80 67.2 0 0 209.17 107.11
  Q 206.92 97.10 205.26 87.45
  C 204.78 84.61 203.69 81.21 203.40 78.75
  Q 202.96 74.91 201.49 70.81
  Q 201.07 69.64 199.87 70.00
  L 184.77 74.63
  Q 184.26 74.79 184.04 75.28
  Q 183.26 77.03 185.30 79.90
  Z"
/>
<path fill="#eecf10" d="
  M 138.58 108.35
  L 148.68 102.35
  Q 149.51 101.85 149.32 100.91
  L 146.23 85.19
  A 0.99 0.99 0.0 0 0 144.98 84.43
  L 128.06 89.52
  Q 127.09 89.81 126.90 88.81
  L 125.61 81.97
  A 1.31 1.30 77.6 0 1 126.57 80.46
  L 136.38 77.96
  A 1.07 1.07 0.0 0 1 137.65 78.65
  L 138.85 82.08
  A 1.23 1.23 0.0 0 0 140.24 82.88
  L 144.23 82.11
  Q 145.09 81.95 144.79 81.13
  L 141.08 70.65
  A 0.58 0.58 0.0 0 0 140.44 70.28
  L 136.89 70.84
  Q 138.66 69.49 140.20 68.10
  C 141.39 67.02 142.65 66.82 144.08 66.38
  A 1.94 1.94 0.0 0 1 146.56 67.83
  L 154.12 104.43
  A 2.19 2.18 -21.3 0 1 153.09 106.76
  L 142.06 113.29
  A 0.93 0.93 0.0 0 1 140.68 112.70
  Q 139.99 109.69 138.58 108.35
  Z"
/>
<path fill="#3199dd" d="
  M 194.22 111.47
  L 204.48 105.14
  Q 204.86 104.91 204.77 104.47
  L 198.96 76.28
  A 0.40 0.39 -13.4 0 0 198.46 75.98
  L 185.30 79.90
  Q 183.26 77.03 184.04 75.28
  Q 184.26 74.79 184.77 74.63
  L 199.87 70.00
  Q 201.07 69.64 201.49 70.81
  Q 202.96 74.91 203.40 78.75
  C 203.69 81.21 204.78 84.61 205.26 87.45
  Q 206.92 97.10 209.17 107.11
  A 2.81 2.80 67.2 0 1 207.96 110.08
  L 197.88 116.57
  Q 196.21 117.65 195.60 115.76
  L 194.22 111.47
  Z"
/>
<path fill="#f9f6ef" d="
  M 138.58 108.35
  L 128.27 108.60
  A 2.22 2.21 79.5 0 1 126.15 107.14
  L 123.88 100.90
  Q 123.58 100.08 124.41 99.82
  L 128.43 98.55
  A 0.97 0.96 73.0 0 1 129.64 99.20
  L 130.28 101.39
  Q 130.45 101.97 131.02 102.19
  Q 134.57 103.55 138.14 101.89
  Q 140.40 101.07 142.20 99.29
  Q 142.63 98.87 142.57 98.26
  L 142.03 93.23
  A 1.33 1.33 0.0 0 0 140.36 92.09
  L 134.83 93.58
  L 124.02 96.97
  Q 122.60 97.41 122.32 95.96
  L 118.79 77.74
  A 1.43 1.42 -14.1 0 1 119.77 76.11
  L 136.89 70.84
  L 140.44 70.28
  A 0.58 0.58 0.0 0 1 141.08 70.65
  L 144.79 81.13
  Q 145.09 81.95 144.23 82.11
  L 140.24 82.88
  A 1.23 1.23 0.0 0 1 138.85 82.08
  L 137.65 78.65
  A 1.07 1.07 0.0 0 0 136.38 77.96
  L 126.57 80.46
  A 1.31 1.30 77.6 0 0 125.61 81.97
  L 126.90 88.81
  Q 127.09 89.81 128.06 89.52
  L 144.98 84.43
  A 0.99 0.99 0.0 0 1 146.23 85.19
  L 149.32 100.91
  Q 149.51 101.85 148.68 102.35
  L 138.58 108.35
  Z"
/>
<path fill="#ffffff" d="
  M 194.22 111.47
  L 182.64 111.57
  A 0.94 0.93 -10.5 0 1 181.77 110.98
  L 179.12 104.12
  Q 178.76 103.19 179.71 102.89
  L 183.48 101.68
  Q 184.35 101.40 184.65 102.26
  L 185.61 105.02
  Q 185.80 105.57 186.38 105.66
  Q 189.66 106.15 192.91 105.34
  L 197.64 102.48
  Q 198.09 102.21 198.08 101.69
  Q 198.06 98.54 196.99 95.58
  A 0.69 0.69 0.0 0 0 196.16 95.14
  L 189.83 96.85
  L 184.95 98.19
  Q 183.98 98.45 183.62 97.51
  L 182.21 93.85
  A 0.89 0.89 0.0 0 1 182.82 92.67
  L 188.71 91.15
  L 194.59 89.39
  A 1.37 1.37 0.0 0 0 195.53 87.75
  L 194.71 84.48
  Q 194.40 83.23 193.17 83.63
  L 186.97 85.63
  L 174.32 89.23
  Q 173.55 89.45 173.24 88.72
  L 171.70 85.17
  Q 171.33 84.33 172.21 84.05
  L 185.30 79.90
  L 198.46 75.98
  A 0.40 0.39 -13.4 0 1 198.96 76.28
  L 204.77 104.47
  Q 204.86 104.91 204.48 105.14
  L 194.22 111.47
  Z"
/>
<path fill="#3199dd" d="
  M 188.71 91.15
  Q 187.24 88.55 186.97 85.63
  L 193.17 83.63
  Q 194.40 83.23 194.71 84.48
  L 195.53 87.75
  A 1.37 1.37 0.0 0 1 194.59 89.39
  L 188.71 91.15
  Z"
/>
<path fill="#eecf10" d="
  M 138.14 101.89
  Q 135.61 98.25 134.83 93.58
  L 140.36 92.09
  A 1.33 1.33 0.0 0 1 142.03 93.23
  L 142.57 98.26
  Q 142.63 98.87 142.20 99.29
  Q 140.40 101.07 138.14 101.89
  Z"
/>
<path fill="#eb3d05" d="
  M 113.51 134.68
  Q 113.40 134.82 113.28 134.93
  Q 113.08 135.14 113.14 135.42
  L 114.18 140.05
  A 0.66 0.64 -23.0 0 1 113.89 140.74
  L 95.77 152.27
  C 93.61 152.86 92.01 153.73 89.68 153.45
  C 87.40 153.17 85.54 153.17 83.19 152.49
  Q 78.28 151.07 73.23 152.47
  Q 72.68 152.62 73.03 152.18
  Q 73.36 151.77 73.87 151.59
  Q 74.31 151.43 74.53 151.02
  C 75.33 149.53 76.90 147.22 75.49 145.59
  L 61.13 109.30
  Q 60.65 108.08 61.92 107.76
  C 66.58 106.61 71.48 104.45 75.74 103.25
  C 80.99 101.76 85.54 100.55 91.12 98.30
  Q 97.56 95.71 104.44 94.62
  A 0.41 0.40 79.6 0 1 104.90 94.94
  Q 109.16 114.35 112.77 134.00
  Q 112.85 134.39 113.51 134.68
  Z
  M 80.61 117.72
  L 99.96 112.05
  Q 100.40 111.92 100.30 111.47
  L 99.20 106.47
  Q 99.10 106.03 98.68 106.16
  L 72.42 114.02
  A 0.85 0.84 71.0 0 0 71.88 115.14
  L 77.91 130.32
  A 0.59 0.59 0.0 0 0 78.63 130.67
  L 95.99 125.32
  Q 97.27 124.92 97.52 126.24
  L 98.45 131.29
  Q 98.69 132.62 97.49 133.23
  Q 95.69 134.16 93.92 135.01
  C 91.73 136.06 89.79 135.61 87.50 135.88
  Q 86.40 136.01 85.99 134.99
  L 84.82 132.10
  Q 84.56 131.47 83.92 131.70
  L 79.87 133.13
  Q 79.04 133.42 79.36 134.23
  L 82.16 141.25
  Q 82.38 141.80 82.98 141.81
  Q 87.90 141.88 92.83 141.56
  C 97.08 141.28 100.61 137.71 104.05 135.85
  Q 105.21 135.22 104.96 133.92
  L 101.95 118.65
  A 0.89 0.89 0.0 0 0 100.91 117.95
  Q 95.14 119.12 89.53 121.16
  C 87.20 122.01 84.76 122.59 82.41 123.43
  Q 81.30 123.82 80.92 122.70
  L 79.79 119.30
  Q 79.38 118.08 80.61 117.72
  Z"
/>
<path fill="#3199dd" d="
  M 192.91 105.34
  L 189.83 96.85
  L 196.16 95.14
  A 0.69 0.69 0.0 0 1 196.99 95.58
  Q 198.06 98.54 198.08 101.69
  Q 198.09 102.21 197.64 102.48
  L 192.91 105.34
  Z"
/>
<path fill="#eaecf0" d="
  M 291.22 102.90
  Q 286.61 99.92 285.87 103.48
  L 270.62 111.42
  A 1.62 1.59 -6.8 0 0 269.82 112.42
  C 269.04 115.33 268.58 118.37 267.34 121.07
  Q 261.61 133.60 254.39 145.35
  L 248.30 147.87
  C 243.32 148.32 240.20 146.86 236.30 143.88
  Q 230.49 139.06 226.62 131.22
  L 223.49 122.19
  L 223.04 119.08
  C 222.74 111.27 224.47 103.43 233.06 101.41
  Q 248.10 103.03 262.16 107.27
  Q 265.61 108.31 268.25 109.85
  A 2.47 2.47 0.0 0 0 270.47 109.97
  Q 277.45 106.93 284.31 103.13
  C 286.22 102.07 285.46 100.77 286.53 99.44
  C 288.00 97.60 293.99 100.05 291.22 102.90
  Z"
/>
<path fill="#f70200" d="
  M 227.38 100.78
  L 230.07 101.16
  Q 228.42 102.93 226.07 103.94
  C 223.61 105.00 222.35 109.56 221.82 111.93
  Q 221.42 113.70 221.92 115.56
  Q 222.39 117.32 223.04 119.08
  L 223.49 122.19
  Q 222.60 121.83 222.60 121.01
  Q 222.60 119.82 221.72 119.11
  Q 221.40 118.85 221.38 118.43
  Q 221.33 117.02 220.77 115.70
  Q 220.56 115.20 220.04 115.33
  L 201.23 119.94
  A 0.84 0.84 0.0 0 0 200.68 121.13
  C 202.57 124.99 201.85 128.84 202.82 132.34
  Q 203.67 135.42 204.91 138.78
  A 2.13 2.12 -18.8 0 1 203.55 141.54
  Q 201.78 142.10 199.40 143.42
  C 196.37 145.12 191.59 146.85 189.25 149.26
  Q 188.97 149.55 188.62 149.34
  Q 187.95 148.93 187.18 149.27
  Q 181.08 136.12 181.60 121.85
  Q 188.13 121.57 194.50 121.41
  C 198.33 121.32 201.71 118.62 204.67 116.50
  C 207.10 114.77 211.10 113.94 213.22 111.27
  A 1.39 1.34 60.9 0 0 213.50 110.21
  L 212.38 102.22
  Q 212.27 101.46 213.04 101.42
  C 215.81 101.28 217.86 101.04 220.97 101.48
  Q 224.38 101.96 227.38 100.78
  Z"
/>
<path fill="#903031" d="
  M 230.07 101.16
  L 233.06 101.41
  C 224.47 103.43 222.74 111.27 223.04 119.08
  Q 222.39 117.32 221.92 115.56
  Q 221.42 113.70 221.82 111.93
  C 222.35 109.56 223.61 105.00 226.07 103.94
  Q 228.42 102.93 230.07 101.16
  Z"
/>
<path fill="#636072" d="
  M 291.22 102.90
  Q 290.42 104.26 288.99 104.49
  Q 288.43 104.58 287.98 104.23
  Q 286.41 103.01 285.87 103.48
  Q 286.61 99.92 291.22 102.90
  Z"
/>
<path fill="#f9f6ef" d="
  M 80.61 117.72
  Q 79.38 118.08 79.79 119.30
  L 80.92 122.70
  Q 81.30 123.82 82.41 123.43
  C 84.76 122.59 87.20 122.01 89.53 121.16
  Q 95.14 119.12 100.91 117.95
  A 0.89 0.89 0.0 0 1 101.95 118.65
  L 104.96 133.92
  Q 105.21 135.22 104.05 135.85
  C 100.61 137.71 97.08 141.28 92.83 141.56
  Q 87.90 141.88 82.98 141.81
  Q 82.38 141.80 82.16 141.25
  L 79.36 134.23
  Q 79.04 133.42 79.87 133.13
  L 83.92 131.70
  Q 84.56 131.47 84.82 132.10
  L 85.99 134.99
  Q 86.40 136.01 87.50 135.88
  C 89.79 135.61 91.73 136.06 93.92 135.01
  Q 95.69 134.16 97.49 133.23
  Q 98.69 132.62 98.45 131.29
  L 97.52 126.24
  Q 97.27 124.92 95.99 125.32
  L 78.63 130.67
  A 0.59 0.59 0.0 0 1 77.91 130.32
  L 71.88 115.14
  A 0.85 0.84 71.0 0 1 72.42 114.02
  L 98.68 106.16
  Q 99.10 106.03 99.20 106.47
  L 100.30 111.47
  Q 100.40 111.92 99.96 112.05
  L 80.61 117.72
  Z"
/>
<path fill="#eaecf0" d="
  M 171.22 108.66
  Q 171.90 108.52 172.49 108.91
  Q 172.90 109.19 173.18 109.90
  Q 175.38 115.58 177.60 121.29
  Q 177.79 121.76 178.29 121.77
  L 181.60 121.85
  Q 181.08 136.12 187.18 149.27
  C 192.73 161.64 202.42 173.07 215.52 177.52
  Q 221.91 178.80 229.30 177.01
  C 222.81 186.37 211.74 195.53 202.21 202.00
  Q 195.52 206.53 184.48 211.15
  Q 172.04 216.36 165.01 218.05
  Q 159.05 219.49 153.20 221.30
  L 150.02 221.14
  Q 149.54 221.11 149.17 220.80
  Q 148.17 219.93 147.55 218.73
  Q 147.31 218.25 146.80 218.06
  C 142.08 216.21 136.28 217.39 131.35 217.87
  Q 129.48 218.05 126.33 219.07
  C 123.72 219.92 120.92 219.68 118.44 220.73
  Q 117.12 221.30 115.72 221.65
  Q 112.07 222.59 111.58 222.75
  C 107.19 224.17 102.64 225.48 98.07 226.16
  C 96.08 226.45 93.61 227.81 93.62 230.07
  Q 93.62 230.46 94.00 230.55
  Q 94.47 230.67 94.93 230.87
  Q 95.45 231.10 95.58 231.64
  Q 95.70 232.14 95.64 232.75
  Q 83.35 236.34 72.19 234.26
  Q 63.85 229.62 58.50 221.29
  C 55.31 216.33 54.09 209.24 52.63 205.49
  Q 59.95 200.94 69.35 199.58
  Q 71.95 199.12 72.16 201.68
  Q 72.20 202.15 72.63 202.35
  C 76.10 203.92 78.65 201.02 82.01 200.32
  Q 82.89 200.14 83.86 199.55
  C 85.30 198.67 86.90 198.57 88.24 197.69
  Q 92.52 194.89 94.01 194.42
  Q 95.52 193.94 96.29 193.25
  Q 96.66 192.92 97.14 192.80
  Q 97.98 192.58 98.53 191.97
  Q 98.85 191.62 99.28 191.41
  Q 102.98 189.60 105.33 186.23
  A 2.01 1.97 -86.6 0 1 105.98 185.64
  Q 106.64 185.29 106.81 184.68
  C 107.38 182.67 108.11 181.09 108.01 178.84
  L 109.57 176.46
  A 1.39 1.39 0.0 0 0 108.16 174.33
  L 106.94 174.55
  Q 91.37 177.02 77.01 183.61
  C 75.37 184.36 71.57 186.93 69.84 185.39
  Q 69.46 185.06 69.03 185.32
  Q 65.42 187.49 61.65 189.38
  Q 59.97 190.23 59.61 192.32
  Q 59.52 192.85 59.07 193.12
  L 57.76 193.92
  Q 57.05 194.35 57.43 193.61
  Q 57.93 192.62 57.42 191.27
  Q 59.16 188.42 61.48 185.97
  Q 67.87 179.20 74.26 172.42
  C 76.90 169.63 80.38 166.83 83.26 163.80
  L 95.77 152.27
  L 113.89 140.74
  A 0.66 0.64 -23.0 0 0 114.18 140.05
  L 113.14 135.42
  Q 113.08 135.14 113.28 134.93
  Q 113.40 134.82 113.51 134.68
  L 115.90 135.45
  A 0.97 0.96 -55.1 0 0 116.78 135.29
  Q 127.03 127.27 138.32 120.84
  C 140.03 119.87 142.70 119.45 144.78 118.20
  C 152.48 113.58 160.43 108.34 168.64 107.09
  Q 169.12 107.02 169.36 107.45
  Q 169.91 108.48 171.22 108.66
  Z
  M 184.20 150.63
  C 186.03 138.43 177.99 127.76 166.41 124.37
  C 160.18 122.54 152.62 124.65 146.46 126.51
  C 142.06 127.84 136.80 128.70 133.47 129.94
  Q 119.77 135.03 118.84 149.77
  Q 118.72 151.69 118.56 153.67
  Q 118.52 154.17 118.16 154.52
  Q 112.99 159.50 111.43 166.08
  C 107.60 182.33 123.70 198.53 140.23 193.99
  C 156.61 189.49 177.23 189.59 176.70 165.38
  Q 176.69 164.87 177.00 164.47
  C 180.64 159.80 183.28 156.74 184.20 150.63
  Z"
/>
<path fill="#930100" d="
  M 223.49 122.19
  L 226.62 131.22
  Q 216.99 134.42 207.34 140.06
  A 1.80 1.80 0.0 0 0 206.76 142.62
  C 209.33 146.42 212.94 152.86 216.76 155.66
  Q 217.39 156.13 218.09 155.78
  Q 224.03 152.83 228.23 148.73
  Q 229.56 147.43 230.73 146.91
  C 232.90 145.94 235.39 146.50 236.30 143.88
  C 240.20 146.86 243.32 148.32 248.30 147.87
  L 244.25 147.99
  Q 244.07 147.99 244.06 148.17
  L 244.06 148.17
  Q 244.06 148.26 244.25 148.30
  L 245.72 148.65
  A 1.00 1.00 0.0 0 1 246.28 150.24
  Q 239.46 159.09 232.32 167.56
  Q 228.41 172.20 225.41 174.94
  Q 225.04 175.27 224.87 175.73
  C 224.29 177.23 223.29 177.78 221.60 177.68
  Q 218.62 177.49 215.52 177.52
  C 202.42 173.07 192.73 161.64 187.18 149.27
  Q 187.95 148.93 188.62 149.34
  Q 188.97 149.55 189.25 149.26
  C 191.59 146.85 196.37 145.12 199.40 143.42
  Q 201.78 142.10 203.55 141.54
  A 2.13 2.12 -18.8 0 0 204.91 138.78
  Q 203.67 135.42 202.82 132.34
  C 201.85 128.84 202.57 124.99 200.68 121.13
  A 0.84 0.84 0.0 0 1 201.23 119.94
  L 220.04 115.33
  Q 220.56 115.20 220.77 115.70
  Q 221.33 117.02 221.38 118.43
  Q 221.40 118.85 221.72 119.11
  Q 222.60 119.82 222.60 121.01
  Q 222.60 121.83 223.49 122.19
  Z"
/>
<path fill="#f70200" d="
  M 184.20 150.63
  C 183.28 156.74 180.64 159.80 177.00 164.47
  Q 176.69 164.87 176.70 165.38
  C 177.23 189.59 156.61 189.49 140.23 193.99
  C 123.70 198.53 107.60 182.33 111.43 166.08
  Q 112.99 159.50 118.16 154.52
  Q 118.52 154.17 118.56 153.67
  Q 118.72 151.69 118.84 149.77
  Q 119.77 135.03 133.47 129.94
  C 136.80 128.70 142.06 127.84 146.46 126.51
  C 152.62 124.65 160.18 122.54 166.41 124.37
  C 177.99 127.76 186.03 138.43 184.20 150.63
  Z
  M 137.30 152.48
  L 137.10 151.64
  A 3.11 3.10 75.5 0 1 139.29 147.92
  Q 149.49 145.10 159.03 142.77
  C 162.28 141.98 165.11 142.16 165.93 145.83
  C 166.10 146.60 165.83 147.60 165.89 148.48
  A 1.15 1.14 16.6 0 0 166.36 149.34
  Q 169.70 151.81 172.01 155.26
  A 0.41 0.41 0.0 0 0 172.68 155.28
  C 179.10 146.82 173.96 134.52 163.56 133.03
  Q 160.03 132.53 153.07 134.27
  Q 145.78 136.10 138.46 137.80
  C 122.10 141.59 125.58 164.20 141.17 165.07
  C 144.88 165.28 149.27 163.65 153.43 162.90
  A 4.16 4.16 0.0 0 1 158.21 165.98
  L 158.40 166.73
  A 3.09 3.08 -14.7 0 1 156.22 170.46
  Q 145.82 173.32 136.86 175.50
  Q 133.84 176.23 132.60 176.00
  C 129.22 175.36 129.86 172.90 129.46 170.21
  Q 129.38 169.70 129.02 169.32
  L 123.17 163.21
  A 0.47 0.47 0.0 0 0 122.43 163.30
  Q 116.98 172.42 122.75 179.87
  C 126.03 184.11 131.23 186.50 136.49 185.43
  Q 141.27 184.45 155.64 180.67
  C 160.98 179.26 164.73 177.65 166.72 172.73
  C 170.56 163.20 163.14 152.92 152.95 153.25
  C 149.79 153.35 145.81 154.77 142.13 155.53
  Q 138.24 156.34 137.30 152.48
  Z"
/>
<path fill="#bb0203" d="
  M 226.62 131.22
  Q 230.49 139.06 236.30 143.88
  C 235.39 146.50 232.90 145.94 230.73 146.91
  Q 229.56 147.43 228.23 148.73
  Q 224.03 152.83 218.09 155.78
  Q 217.39 156.13 216.76 155.66
  C 212.94 152.86 209.33 146.42 206.76 142.62
  A 1.80 1.80 0.0 0 1 207.34 140.06
  Q 216.99 134.42 226.62 131.22
  Z"
/>
<path fill="#ffffff" d="
  M 137.30 152.48
  Q 138.24 156.34 142.13 155.53
  C 145.81 154.77 149.79 153.35 152.95 153.25
  C 163.14 152.92 170.56 163.20 166.72 172.73
  C 164.73 177.65 160.98 179.26 155.64 180.67
  Q 141.27 184.45 136.49 185.43
  C 131.23 186.50 126.03 184.11 122.75 179.87
  Q 116.98 172.42 122.43 163.30
  A 0.47 0.47 0.0 0 1 123.17 163.21
  L 129.02 169.32
  Q 129.38 169.70 129.46 170.21
  C 129.86 172.90 129.22 175.36 132.60 176.00
  Q 133.84 176.23 136.86 175.50
  Q 145.82 173.32 156.22 170.46
  A 3.09 3.08 -14.7 0 0 158.40 166.73
  L 158.21 165.98
  A 4.16 4.16 0.0 0 0 153.43 162.90
  C 149.27 163.65 144.88 165.28 141.17 165.07
  C 125.58 164.20 122.10 141.59 138.46 137.80
  Q 145.78 136.10 153.07 134.27
  Q 160.03 132.53 163.56 133.03
  C 173.96 134.52 179.10 146.82 172.68 155.28
  A 0.41 0.41 0.0 0 1 172.01 155.26
  Q 169.70 151.81 166.36 149.34
  A 1.15 1.14 16.6 0 1 165.89 148.48
  C 165.83 147.60 166.10 146.60 165.93 145.83
  C 165.11 142.16 162.28 141.98 159.03 142.77
  Q 149.49 145.10 139.29 147.92
  A 3.11 3.10 75.5 0 0 137.10 151.64
  L 137.30 152.48
  Z"
/>
<path fill="#903031" d="
  M 254.39 145.35
  Q 246.74 158.08 241.36 164.36
  C 238.57 167.62 235.76 171.88 232.45 174.54
  Q 230.65 175.98 229.30 177.01
  Q 221.91 178.80 215.52 177.52
  Q 218.62 177.49 221.60 177.68
  C 223.29 177.78 224.29 177.23 224.87 175.73
  Q 225.04 175.27 225.41 174.94
  Q 228.41 172.20 232.32 167.56
  Q 239.46 159.09 246.28 150.24
  A 1.00 1.00 0.0 0 0 245.72 148.65
  L 244.25 148.30
  Q 244.06 148.26 244.06 148.17
  L 244.06 148.17
  Q 244.07 147.99 244.25 147.99
  L 248.30 147.87
  L 254.39 145.35
  Z"
/>
<path fill="#f70200" d="
  M 75.49 145.59
  C 76.90 147.22 75.33 149.53 74.53 151.02
  Q 74.31 151.43 73.87 151.59
  Q 73.36 151.77 73.03 152.18
  Q 72.68 152.62 73.23 152.47
  Q 78.28 151.07 83.19 152.49
  C 85.54 153.17 87.40 153.17 89.68 153.45
  C 92.01 153.73 93.61 152.86 95.77 152.27
  L 83.26 163.80
  Q 83.12 163.32 82.41 163.50
  Q 82.06 163.59 81.71 163.92
  Q 77.15 168.17 72.60 170.31
  C 71.30 168.23 69.87 168.20 67.60 167.92
  Q 67.17 167.87 67.03 167.45
  Q 66.67 166.36 65.48 166.90
  C 61.90 168.50 57.68 172.67 55.47 174.54
  Q 52.94 176.69 50.69 179.17
  A 0.38 0.38 0.0 0 0 50.84 179.79
  Q 51.29 179.96 51.76 179.91
  L 44.02 185.67
  A 0.87 0.87 0.0 0 1 43.05 185.72
  L 42.82 185.58
  A 0.27 0.26 34.6 0 1 42.74 185.18
  C 45.67 181.63 48.03 177.65 50.81 174.47
  C 58.84 165.28 65.29 157.40 75.47 147.86
  Q 75.84 147.52 75.84 147.01
  Q 75.84 146.22 75.49 145.59
  Z"
/>
<path fill="#903031" d="
  M 72.60 170.31
  C 64.32 171.77 58.61 175.59 51.76 179.91
  Q 51.29 179.96 50.84 179.79
  A 0.38 0.38 0.0 0 1 50.69 179.17
  Q 52.94 176.69 55.47 174.54
  C 57.68 172.67 61.90 168.50 65.48 166.90
  Q 66.67 166.36 67.03 167.45
  Q 67.17 167.87 67.60 167.92
  C 69.87 168.20 71.30 168.23 72.60 170.31
  Z"
/>
<path fill="#bb0203" d="
  M 108.01 178.84
  Q 102.22 183.27 96.05 186.81
  Q 95.92 186.89 95.05 187.58
  Q 94.50 188.02 93.78 188.09
  Q 93.29 188.13 92.88 188.40
  Q 90.30 190.07 87.67 191.64
  C 86.84 192.15 85.76 192.15 84.97 193.01
  A 2.38 2.36 -80.3 0 1 84.17 193.58
  C 80.96 194.99 78.00 196.93 74.79 197.95
  Q 72.07 198.81 69.35 199.58
  Q 59.95 200.94 52.63 205.49
  Q 48.60 206.91 47.52 208.61
  Q 44.39 209.58 41.34 211.52
  Q 40.91 211.78 40.80 212.09
  Q 40.73 212.28 40.73 212.47
  Q 40.74 212.91 41.17 212.97
  Q 42.30 213.12 42.37 214.27
  Q 38.58 211.36 36.01 217.05
  Q 35.60 216.68 35.32 216.19
  A 1.08 1.07 -29.5 0 0 33.83 215.78
  L 28.82 218.73
  A 0.74 0.74 0.0 0 1 27.71 217.97
  Q 27.74 217.83 27.76 217.70
  A 0.77 0.76 72.8 0 1 27.99 217.26
  Q 30.81 214.52 31.61 213.86
  Q 42.69 204.78 53.57 196.75
  Q 56.62 195.99 61.39 192.91
  Q 65.17 190.46 77.46 184.94
  Q 78.53 184.46 83.48 182.83
  Q 86.55 181.82 89.30 180.03
  Q 89.48 179.91 89.70 179.90
  Q 89.91 179.89 90.13 179.88
  Q 90.62 179.87 91.02 179.59
  C 92.28 178.72 93.69 178.74 94.95 178.18
  C 97.49 177.04 100.23 176.78 102.77 175.80
  Q 104.79 175.01 106.94 174.55
  L 108.16 174.33
  A 1.39 1.39 0.0 0 1 109.57 176.46
  L 108.01 178.84
  Z"
/>
<path fill="#903031" d="
  M 106.94 174.55
  Q 104.79 175.01 102.77 175.80
  C 100.23 176.78 97.49 177.04 94.95 178.18
  C 93.69 178.74 92.28 178.72 91.02 179.59
  Q 90.62 179.87 90.13 179.88
  Q 89.91 179.89 89.70 179.90
  Q 89.48 179.91 89.30 180.03
  Q 86.55 181.82 83.48 182.83
  Q 78.53 184.46 77.46 184.94
  Q 65.17 190.46 61.39 192.91
  Q 56.62 195.99 53.57 196.75
  Q 56.51 194.25 57.42 191.27
  Q 57.93 192.62 57.43 193.61
  Q 57.05 194.35 57.76 193.92
  L 59.07 193.12
  Q 59.52 192.85 59.61 192.32
  Q 59.97 190.23 61.65 189.38
  Q 65.42 187.49 69.03 185.32
  Q 69.46 185.06 69.84 185.39
  C 71.57 186.93 75.37 184.36 77.01 183.61
  Q 91.37 177.02 106.94 174.55
  Z"
/>
<path fill="#dabcc0" d="
  M 108.01 178.84
  C 108.11 181.09 107.38 182.67 106.81 184.68
  Q 106.64 185.29 105.98 185.64
  A 2.01 1.97 -86.6 0 0 105.33 186.23
  Q 102.98 189.60 99.28 191.41
  Q 98.85 191.62 98.53 191.97
  Q 97.98 192.58 97.14 192.80
  Q 96.66 192.92 96.29 193.25
  Q 95.52 193.94 94.01 194.42
  Q 92.52 194.89 88.24 197.69
  C 86.90 198.57 85.30 198.67 83.86 199.55
  Q 82.89 200.14 82.01 200.32
  C 78.65 201.02 76.10 203.92 72.63 202.35
  Q 72.20 202.15 72.16 201.68
  Q 71.95 199.12 69.35 199.58
  Q 72.07 198.81 74.79 197.95
  C 78.00 196.93 80.96 194.99 84.17 193.58
  A 2.38 2.36 -80.3 0 0 84.97 193.01
  C 85.76 192.15 86.84 192.15 87.67 191.64
  Q 90.30 190.07 92.88 188.40
  Q 93.29 188.13 93.78 188.09
  Q 94.50 188.02 95.05 187.58
  Q 95.92 186.89 96.05 186.81
  Q 102.22 183.27 108.01 178.84
  Z"
/>
<path fill="#636072" d="
  M 52.63 205.49
  C 54.09 209.24 55.31 216.33 58.50 221.29
  Q 63.85 229.62 72.19 234.26
  Q 69.95 234.12 67.74 234.12
  C 63.13 234.13 60.38 233.11 57.08 229.96
  Q 48.01 221.31 47.52 208.61
  Q 48.60 206.91 52.63 205.49
  Z
  M 51.42 221.85
  A 1.45 1.45 0.0 0 0 52.10 222.81
  L 56.11 225.17
  A 1.45 1.45 0.0 0 0 58.13 223.26
  L 54.68 216.56
  A 1.45 1.45 0.0 0 0 52.56 216.03
  L 51.29 216.91
  A 1.45 1.45 0.0 0 0 50.70 218.40
  L 51.42 221.85
  Z"
/>
<path fill="#eaecf0" d="
  M 42.37 214.27
  Q 40.14 217.41 36.01 217.05
  Q 38.58 211.36 42.37 214.27
  Z"
/>
<path fill="#dabcc0" d="
  M 51.42 221.85
  L 50.70 218.40
  A 1.45 1.45 0.0 0 1 51.29 216.91
  L 52.56 216.03
  A 1.45 1.45 0.0 0 1 54.68 216.56
  L 58.13 223.26
  A 1.45 1.45 0.0 0 1 56.11 225.17
  L 52.10 222.81
  A 1.45 1.45 0.0 0 1 51.42 221.85
  Z"
/>
<path fill="#dabcc0" d="
  M 153.20 221.30
  L 150.72 222.08
  C 147.69 222.38 145.74 220.41 142.67 220.96
  Q 132.50 222.76 122.40 224.93
  C 116.19 226.26 109.53 228.40 103.04 230.08
  Q 101.03 230.60 98.66 232.14
  L 95.64 232.75
  Q 95.70 232.14 95.58 231.64
  Q 95.45 231.10 94.93 230.87
  Q 94.47 230.67 94.00 230.55
  Q 93.62 230.46 93.62 230.07
  C 93.61 227.81 96.08 226.45 98.07 226.16
  C 102.64 225.48 107.19 224.17 111.58 222.75
  Q 112.07 222.59 115.72 221.65
  Q 117.12 221.30 118.44 220.73
  C 120.92 219.68 123.72 219.92 126.33 219.07
  Q 129.48 218.05 131.35 217.87
  C 136.28 217.39 142.08 216.21 146.80 218.06
  Q 147.31 218.25 147.55 218.73
  Q 148.17 219.93 149.17 220.80
  Q 149.54 221.11 150.02 221.14
  L 153.20 221.30
  Z"
/>
<path fill="#bb0203" d="
  M 150.72 222.08
  C 149.13 222.07 148.30 222.53 147.85 224.15
  C 141.37 247.66 122.32 255.28 99.99 256.80
  Q 89.14 257.54 67.50 256.78
  Q 65.08 256.70 64.20 255.95
  Q 67.40 256.10 72.38 254.76
  Q 73.60 254.43 78.49 253.85
  Q 80.15 253.66 84.73 250.08
  Q 87.21 248.15 86.21 246.29
  Q 94.35 241.89 98.66 232.14
  Q 101.03 230.60 103.04 230.08
  C 109.53 228.40 116.19 226.26 122.40 224.93
  Q 132.50 222.76 142.67 220.96
  C 145.74 220.41 147.69 222.38 150.72 222.08
  Z"
/>
<path fill="#dabcc0" d="
  M 86.21 246.29
  Q 87.21 248.15 84.73 250.08
  Q 80.15 253.66 78.49 253.85
  Q 73.60 254.43 72.38 254.76
  Q 67.40 256.10 64.20 255.95
  Q 63.87 256.03 63.58 255.53
  A 0.40 0.39 -26.0 0 1 63.78 254.96
  C 71.37 252.02 78.81 250.53 86.21 246.29
  Z"
/>
</svg>
